# xmcd CD database file
#
# Track frame offsets:
#	150
#	13725
#	28505
#	44580
#	58316
#	71917
#	85334
#	100664
#	114877
#	127674
#	141896
#	157701
#	171116
#	182765
#	195331
#	208564
#	221115
#	233806
#	245286
#	257047
#	269924
#	283102
#	296283
#	308802
#	320497
#
# Disc length: 4440 seconds
#
# Revision: 3
# Processed by: cddbd v1.5.1PL0 Copyright (c) Steve Scherf et al.
# Submitted via: jetAudio 5
#
DISCID=6d115619
DTITLE=Various Artist - Southern Blues Volume One
DYEAR=1900
DGENRE=Blues
TTITLE0=William Harris - I'm Leaving Town
TTITLE1=Frank Stokes - Mistreatin' Blues
TTITLE2=Tommy Johnson - Canned Heat Blues
TTITLE3=Furry Lewis - Dry Land Blues
TTITLE4=Charlie McCoy - Last Time Blues
TTITLE5=Charley Patton - Elder Greene Blues
TTITLE6=Willie Harris - New Drive A Stranger From Your Door
TTITLE7=Garfield Akers - Dough Roller Blues
TTITLE8=Jed Davenport - Beale Street Breakdown
TTITLE9=Geeshie Wiley - Skinny Leg Blues
TTITLE10=Mississippi Sheiks - Stop And Listen Blues
TTITLE11=Hattie Hart - I Let My Daddy Do That
TTITLE12=Otto Virgial - Little Girl In Rome
TTITLE13=Mississippi Moaner - It's Cold In China Blues
TTITLE14=Bo Carter - The Ins And Outs Of My Girl
TTITLE15=Mississippi Jook Band - Skippy Whippy
TTITLE16=Robert Johnson - Preachin' Blues
TTITLE17=Robert Lee McCoy - Lonesome World
TTITLE18=James De Berry - Spider Bite Blues
TTITLE19=Bukka White - Special Streamline
TTITLE20=Sleepy John Estes - Jailhouse Blues
TTITLE21=Tommy McClennan - Mozelle Blues
TTITLE22=Arthur Crudup - Standin' By My Window
TTITLE23=Cecil Gant - Anna Mae
TTITLE24=Rudy Greene - No Good Woman Blues
EXTD=
EXTT0=
EXTT1=
EXTT2=
EXTT3=
EXTT4=
EXTT5=
EXTT6=
EXTT7=
EXTT8=
EXTT9=
EXTT10=
EXTT11=
EXTT12=
EXTT13=
EXTT14=
EXTT15=
EXTT16=
EXTT17=
EXTT18=
EXTT19=
EXTT20=
EXTT21=
EXTT22=
EXTT23=
EXTT24=
PLAYORDER=
